<?xml version="1.0" encoding="utf-8"?>
<!-- Generator: Adobe Illustrator 16.0.0, SVG Export Plug-In . SVG Version: 6.00 Build 0)  -->
<!DOCTYPE svg PUBLIC "-//W3C//DTD SVG 1.1//EN" "http://www.w3.org/Graphics/SVG/1.1/DTD/svg11.dtd">
<svg version="1.1" id="Layer_1" xmlns="http://www.w3.org/2000/svg" xmlns:xlink="http://www.w3.org/1999/xlink" x="0px" y="0px"
	 width="500px" height="500px" viewBox="0 0 500 500" enable-background="new 0 0 500 500" xml:space="preserve">
<path fill="#2AB89A" d="M465.219,245.949c0,120.987-99.403,219.067-222.03,219.067c-122.629,0-222.037-98.08-222.037-219.067
	c0-120.989,99.408-219.069,222.037-219.069C365.815,26.88,465.219,124.959,465.219,245.949z"/>
<path fill="none" stroke="#4875BA" stroke-miterlimit="10" d="M367.438,172.004"/>
<path fill="#FFFFFF" d="M324.083,236.363c3.563-2.992,7.213-5.784,10.442-9.074c14.182-14.453,21.964-33.169,19.663-52.203
	c-1.733-14.344-9.599-32.008-21.451-42.49c-6.073-5.371-17.025-8.875-24.808-13.082l-1.041-44.586h-44.138v38.664
	c-7.038-0.063-10.209-0.048-33.751-0.048V74.928h-44.138v38.615l-57.667-0.615v59.364h54.96v143.646h-54.96v62.296l57.667,0.117
	v38.616H229v-38.616c34,0,32.064,0.001,33.751-0.002v38.618h44.138c0,0,0-40.176,0.002-40.178
	c9.659-6.567,22.112-12.35,30.435-20.483c11.852-11.586,19.717-31.108,21.451-46.964c2.301-21.037-5.482-41.725-19.664-57.697
	c-3.228-3.638-6.879-6.724-10.441-10.031c-3.83-3.556-5.258-3.778-4.34-5.854L324.083,236.363z M231.047,173.588
	c49.34,0,63.076-2.642,63.076,22.831c0,27.445-18.835,22.832-63.076,22.832V173.588z M233.341,316.511v-48.899
	c49.052,0,69.597-4.565,69.597,24.268C302.938,321.578,281.207,316.511,233.341,316.511z"/>
</svg>
